General
Complete name : Kill Bill-Vol.1[720p.6.channels]BRRip.Hindi.dubbed.aaaevilacharya
Format : Matroska
File size : 669 MiB
Duration : 1h 50mn
Overall bit rate : 845 Kbps
Encoded date : UTC 2010-10-31 16:45:52

Video
ID : 1
Format : MPEG-4 Visual
Format profile : Advanced Simple@L5
Format settings, BVOP : Yes
Format settings, QPel : No
Format settings, GMC : No warppoints
Format settings, Matrix : Default (H.263)
Codec ID : XVID
Codec ID/Hint : XviD
Duration : 1h 50mn
Bit rate : 636 Kbps
Width : 1280 pixels
Height : 528 pixels
Display aspect ratio : 2.40:1
Frame rate : 23.976 fps
Color space : YUV
Chroma subsampling : 4:2:0
Bit depth : 8 bits
Scan type : Progressive
Bits/(Pixel*Frame) : 0.039
Stream size : 504 MiB (75%)
Title : kill bill 1.aaaevilacharya
Writing library : XviD 1.3.0.dev55
Language : Hindi

Audio
ID : 2
Format : AC-3
Format/Info : Audio Coding 3
Codec ID : A_AC3
Duration : 1h 50mn
Bit rate mode : Constant
Bit rate : 192 Kbps
Channel(s) : 6 channels
Channel positions : Front: L C R, Side: L R, LFE
Sampling rate : 48.0 KHz
Stream size : 152 MiB (23%)
Title : aaaevilacharya
Language : Hindi

screenshots
 
http://img178.imageshack.us/img178/8297/killbillvol1720pbrriphi.jpg 
http://img201.imageshack.us/img201/8297/killbillvol1720pbrriphi.jpg 
http://img827.imageshack.us/img827/8297/killbillvol1720pbrriphi.jpg 
http://img89.imageshack.us/img89/8297/killbillvol1720pbrriphi.jpg
 
http://img229.imageshack.us/img229/8297/killbillvol1720pbrriphi.jpg
